<svg width="72" height="50" viewBox="0 0 72 50" fill="none" xmlns="http://www.w3.org/2000/svg">
<path d="M41.6558 12.5689C41.4372 12.9696 41.5858 13.4726 41.987 13.6913C42.3877 13.9088 42.8912 13.7613 43.1088 13.3595C45.4061 9.13923 49.8836 8.41186 52.2118 10.8919C53.4483 12.2081 53.7015 14.4302 52.7768 15.8444C51.7087 17.4739 49.1646 18.1912 47.7473 20.0892C46.8075 21.3483 46.5765 22.9424 47.1581 24.1498C47.3008 24.446 47.596 24.6184 47.904 24.6184C48.5074 24.6184 48.9149 23.9848 48.6488 23.4325C48.288 22.6828 48.602 21.7102 49.0732 21.079C50.3836 19.3235 52.7403 18.9226 54.1608 16.7491C55.5013 14.7016 55.1749 11.6308 53.4182 9.75882C50.3389 6.4828 44.5069 7.32853 41.6558 12.5689Z" fill="#101828"/>
<path d="M47.3283 26.443C46.8892 27.0819 47.3245 27.9325 48.1011 27.9487H48.12C48.8554 27.9487 49.3321 27.1655 48.917 26.5787C48.6752 25.8764 47.7405 25.8444 47.3283 26.443Z" fill="#101828"/>
<path d="M8.98388 20.922H22.4007C22.8574 20.922 23.2279 20.5515 23.2279 20.0948C23.2279 19.6381 22.8574 19.2676 22.4007 19.2676H8.98388C8.5272 19.2676 8.15668 19.6381 8.15668 20.0948C8.15668 20.5515 8.5272 20.922 8.98388 20.922Z" fill="#101828"/>
<path d="M8.29401 25.982C8.29401 26.4387 8.66453 26.8092 9.12121 26.8092H26.4521C26.9088 26.8092 27.2794 26.4387 27.2794 25.982C27.2794 25.5253 26.9088 25.1548 26.4521 25.1548H9.12121C8.66453 25.1548 8.29401 25.5253 8.29401 25.982Z" fill="#101828"/>
<path d="M8.98388 33.0382H14.5971C15.0538 33.0382 15.4243 32.6677 15.4243 32.211C15.4243 31.7543 15.0538 31.3838 14.5971 31.3838H8.98388C8.5272 31.3838 8.15668 31.7543 8.15668 32.211C8.15668 32.6677 8.5272 33.0382 8.98388 33.0382Z" fill="#101828"/>
<path d="M62.6044 4.11099C58.9765 1.99908 54.4509 0.728516 49.5304 0.728516C39.2895 0.728516 30.7122 6.17792 28.5591 13.4436C1.42169 13.5276 4.83807 13.2833 3.1272 13.5136C-0.885501 14.0662 0.526814 18.9975 0.539489 20.5287L0.681665 37.8655C0.696206 39.647 2.41147 41.0419 4.58666 41.0419H5.42188C6.02579 43.2704 6.24006 45.55 6.01919 47.834C5.90601 49.0049 7.10387 49.7427 8.22662 49.203C8.91959 49.2466 9.6125 49.2901 10.3055 49.3337C12.2442 46.842 14.3556 44.4647 16.5851 42.2194C27.578 42.5315 31.0417 42.6274 38.7375 42.5961C40.1892 42.5902 41.7509 42.5438 42.9143 41.6755C45.161 39.9988 44.7537 36.342 44.8034 34.0626C48.2109 34.4802 51.7068 34.1846 55.0742 33.4316C55.7295 34.6488 56.4387 35.8683 57.1834 37.028C57.4934 37.5109 58.1793 38.0293 59.594 38.3486L60.1707 38.3823C61.0682 38.7655 62.0124 38.1235 62.0651 37.202C62.1908 35.0301 62.4186 33.1834 62.7031 31.0379C64.3369 30.6325 67.7077 27.6889 69.1584 25.6484C74.5314 18.091 70.9883 7.71082 62.6044 4.11099ZM2.33608 37.8537C2.13388 19.1549 2.29578 21.0225 2.08027 19.1651C1.86778 17.3287 1.62479 15.3914 3.35016 15.1529C4.95484 14.9351 1.24486 15.1804 28.1848 15.1001C27.8912 16.9958 27.9819 18.7877 28.6782 20.9127C29.9864 27.281 35.4296 31.8331 41.7431 33.4773V37.8483C41.7431 38.6831 40.7171 39.3875 39.5033 39.3875H14.9585C14.7708 39.3875 14.4361 39.5412 14.3112 39.6998C12.283 42.2515 9.99312 45.1305 7.70861 47.4893C7.89117 44.9582 7.60521 42.4313 6.85609 39.9734C6.76143 39.6599 6.41651 39.3875 6.06497 39.3875H4.58666C3.37332 39.3875 2.34308 38.6841 2.33608 37.8537ZM60.4678 36.2693C59.0441 34.2456 56.48 31.433 56.1622 31.1577C55.4318 30.5271 54.7037 31.6227 49.5304 31.6227C38.5845 31.6227 29.6791 25.0643 29.6791 17.0034C29.6791 8.94133 38.5845 2.38293 49.5304 2.38293C60.4764 2.38293 69.3818 8.94133 69.3818 17.0034C69.3818 21.5444 66.5792 25.7526 61.6929 28.5487C61.2463 28.8077 61.2673 29.334 61.1862 29.8886C60.876 32.2065 60.6234 34.0925 60.4678 36.2693Z" fill="#101828"/>
</svg>
