<?xml version="1.0" encoding="UTF-8"?>
<svg id="Layer_2" xmlns="http://www.w3.org/2000/svg" xmlns:xlink="http://www.w3.org/1999/xlink" viewBox="0 0 865.34 115.54">
  <defs>
    <style>
      .cls-1 {
        fill: url(#linear-gradient-3);
      }

      .cls-2 {
        fill: url(#linear-gradient-2);
      }

      .cls-3 {
        fill: #040049;
      }

      .cls-4 {
        fill: url(#linear-gradient);
      }
    </style>
    <linearGradient id="linear-gradient" x1=".12" y1="78.32" x2="86.97" y2="78.32" gradientUnits="userSpaceOnUse">
      <stop offset="0" stop-color="#2edeff"/>
      <stop offset="0" stop-color="#2edeff"/>
      <stop offset=".51" stop-color="#7037ff"/>
      <stop offset="1" stop-color="#9514fe"/>
    </linearGradient>
    <linearGradient id="linear-gradient-2" x1="57.77" y1="7.18" x2="57.77" y2="62.81" gradientUnits="userSpaceOnUse">
      <stop offset="0" stop-color="#36cbff"/>
      <stop offset="1" stop-color="#36cbff" stop-opacity="0"/>
    </linearGradient>
    <linearGradient id="linear-gradient-3" x1="57.25" y1="63.99" x2="157.76" y2="79.89" xlink:href="#linear-gradient"/>
  </defs>
  <g id="Layer_1-2" data-name="Layer_1">
    <g>
      <path class="cls-3" d="M136.36,58.49c0-16.62,12.19-28.81,29.48-28.81s29.26,12.19,29.26,28.81v4.65h-44.88c1.77,7.98,7.87,12.19,15.63,12.19,5.87,0,10.2-1.66,12.97-5.21h14.07c-4.1,10.42-14.07,17.18-27.04,17.18-17.29,0-29.48-12.19-29.48-28.81ZM181.14,52.61c-2.11-7.31-8.09-10.97-15.29-10.97s-13.19,3.77-15.29,10.97h30.59Z"/>
      <path class="cls-3" d="M199.51,59.04c0-17.4,12.19-29.37,29.59-29.37s29.15,11.64,29.15,29.26v26.93h-12.08v-10.75c-3.33,8.09-10.75,12.19-19.39,12.19-13.3,0-27.26-9.53-27.26-28.26ZM245.06,58.49c0-9.64-6.43-16.51-16.07-16.51s-16.18,6.87-16.18,16.51,6.54,16.51,16.18,16.51,16.07-6.87,16.07-16.51Z"/>
      <path class="cls-3" d="M262.77,69.68h13.3c.11,3.66,3.32,6.09,9.75,6.09,6.76,0,9.64-2.77,9.64-6.09,0-4.21-4.87-4.76-10.75-5.54-8.42-1.11-20.83-2.55-20.83-15.96,0-11.19,8.53-18.51,21.72-18.51s21.61,7.54,21.94,17.18h-13.08c-.33-3.32-3.44-5.65-8.64-5.65-5.76,0-8.64,2.77-8.64,5.98,0,4.21,4.99,4.87,10.86,5.65,7.31,1,20.72,2.44,20.72,16.07,0,11.08-8.98,18.4-22.94,18.4s-22.72-7.42-23.05-17.62Z"/>
      <path class="cls-3" d="M313.73,91.85h13.19c2.22,5.1,6.54,7.42,13.19,7.42,8.98,0,14.07-4.32,14.07-14.96v-6.87c-3.33,5.98-9.09,9.2-16.29,9.2-12.64,0-24.6-8.2-24.6-27.71v-27.82h13.19v27.82c0,10.42,5.54,15.4,13.85,15.4s13.85-5.21,13.85-15.4v-27.82h13.19v52.86c0,19.06-12.08,26.71-27.26,26.71-12.75,0-23.27-5.87-26.37-18.84Z"/>
      <path class="cls-3" d="M375.56,58.49c0-16.62,12.19-28.81,29.48-28.81,14.18,0,24.93,8.2,28.15,20.39h-7.54c-2.99-8.2-10.64-13.52-20.61-13.52-13.08,0-21.94,9.31-21.94,21.94s8.87,21.94,21.94,21.94c9.97,0,17.62-5.32,20.61-13.52h7.54c-3.21,12.19-13.96,20.39-28.15,20.39-17.29,0-29.48-12.19-29.48-28.81Z"/>
      <path class="cls-3" d="M439.92,7.18h7.42v78.68h-7.42V7.18Z"/>
      <path class="cls-3" d="M453.98,14.82c0-3.21,2.44-5.65,5.65-5.65s5.65,2.44,5.65,5.65-2.44,5.65-5.65,5.65-5.65-2.44-5.65-5.65ZM455.97,31.12h7.42v54.75h-7.42V31.12Z"/>
      <path class="cls-3" d="M472.02,53.83c0-16.29,9.53-24.16,22.16-24.16,8.87,0,16.18,4.21,19.73,12.3,3.44-8.09,10.75-12.3,19.73-12.3,12.63,0,22.17,7.87,22.17,24.16v32.03h-7.43v-32.03c0-11.64-6.43-17.29-15.29-17.29s-15.4,5.87-15.4,17.29v32.03h-7.42v-32.03c0-11.42-6.65-17.29-15.51-17.29s-15.29,5.65-15.29,17.29v32.03h-7.42v-32.03Z"/>
      <path class="cls-3" d="M564.44,58.16V7.18h7.42v35.68c4.1-8.31,12.63-13.19,23.05-13.19,16.07,0,28.37,11.75,28.37,28.59s-12.19,29.03-29.59,29.03-29.26-11.53-29.26-29.15ZM615.75,58.49c0-12.64-8.87-21.94-21.94-21.94s-21.94,9.31-21.94,21.94,8.75,21.94,21.94,21.94,21.94-9.31,21.94-21.94Z"/>
      <path class="cls-3" d="M631.92,64.81V11.72h13.19v19.39h28.26v11.97h-28.26v21.72c0,7.31,3.77,10.19,9.2,10.19s9.2-2.77,9.2-10.19v-1.44h13.19v1.44c0,15.18-9.09,22.5-22.39,22.5s-22.39-7.31-22.39-22.5Z"/>
      <path class="cls-3" d="M682.89,58.49c0-16.62,12.19-28.81,29.48-28.81s29.26,12.19,29.26,28.81v4.65h-44.88c1.77,7.98,7.87,12.19,15.62,12.19,5.87,0,10.2-1.66,12.97-5.21h14.07c-4.1,10.42-14.07,17.18-27.04,17.18-17.29,0-29.48-12.19-29.48-28.81ZM727.67,52.61c-2.11-7.31-8.09-10.97-15.29-10.97s-13.19,3.77-15.29,10.97h30.59Z"/>
      <path class="cls-3" d="M747.22,58.49c0-16.62,12.19-28.81,29.48-28.81,14.85,0,25.71,8.98,28.37,21.94h-13.3c-2.33-5.87-7.87-9.64-15.07-9.64-9.64,0-16.18,6.87-16.18,16.51s6.54,16.51,16.18,16.51c7.2,0,12.75-3.77,15.07-9.64h13.3c-2.66,12.97-13.52,21.94-28.37,21.94-17.29,0-29.48-12.19-29.48-28.81Z"/>
      <path class="cls-3" d="M811.26,7.18h13.19v31.58c3.66-5.87,9.31-9.09,16.29-9.09,12.63,0,24.6,8.2,24.6,27.7v28.48h-13.19v-28.48c0-10.42-5.54-15.4-13.85-15.4s-13.85,5.21-13.85,15.4v28.48h-13.19V7.18Z"/>
      <path class="cls-4" d="M86.97,107.63c-8.57,5.02-18.54,7.91-29.19,7.91-19.83,0-37.34-9.99-47.73-25.21C4.35,81.99.78,72.1.12,61.43l20.31-20.33,66.53,66.53Z"/>
      <path class="cls-2" d="M115.54,57.78c0,3.87-.37,7.66-1.11,11.33l-41.58-41.58-15.21,15.21c-1.05-8.82-8.55-15.66-17.68-15.66s-16.73,6.94-17.69,15.85l-1.83-1.83L.12,61.43c-.09-1.2-.12-2.42-.12-3.65C0,25.87,25.87,0,57.78,0s57.76,25.87,57.76,57.78Z"/>
      <path class="cls-1" d="M114.43,69.1c-2.48,12.48-8.99,23.51-18.1,31.69-2.87,2.57-6.01,4.87-9.36,6.83l-47.1-47.1,8.1-8.11,9.67-9.67,15.21-15.21,41.58,41.58Z"/>
    </g>
  </g>
</svg>