<svg width="28" height="28" viewBox="0 0 28 28" fill="none" xmlns="http://www.w3.org/2000/svg">
<g clip-path="url(#clip0_527_7196)">
<path d="M9.75487 0.920933C6.95724 1.89146 4.54456 3.73355 2.87123 6.17663C1.1979 8.6197 0.352106 11.535 0.458092 14.4943C0.564078 17.4536 1.61626 20.3009 3.46007 22.618C5.30389 24.9351 7.84217 26.5999 10.7021 27.3678C13.0206 27.9661 15.4498 27.9924 17.7808 27.4444C19.8924 26.9701 21.8447 25.9555 23.4464 24.5C25.1135 22.9389 26.3235 20.9529 26.9464 18.7556C27.6235 16.3661 27.744 13.8533 27.2986 11.41H14.2786V16.8109H21.8189C21.6682 17.6723 21.3453 18.4945 20.8695 19.2282C20.3936 19.9619 19.7746 20.592 19.0496 21.0809C18.1288 21.69 17.0909 22.0998 16.0024 22.2841C14.9107 22.4871 13.7909 22.4871 12.6992 22.2841C11.5928 22.0553 10.5461 21.5986 9.62581 20.9431C8.14739 19.8966 7.03729 18.4098 6.45394 16.695C5.86072 14.948 5.86072 13.0541 6.45394 11.3072C6.86918 10.0827 7.55563 8.96773 8.46206 8.04562C9.49936 6.971 10.8126 6.20286 12.2577 5.82548C13.7028 5.44809 15.224 5.47603 16.6542 5.90625C17.7716 6.24923 18.7933 6.84848 19.638 7.65625C20.4882 6.81041 21.337 5.96239 22.1842 5.11218C22.6217 4.655 23.0986 4.21968 23.5296 3.75156C22.2402 2.55166 20.7267 1.618 19.0758 1.00406C16.0695 -0.0875264 12.7801 -0.116862 9.75487 0.920933Z" fill="white"/>
<path d="M9.75383 0.920944C12.7788 -0.117557 16.0682 -0.0889937 19.0748 1.00188C20.7259 1.61999 22.2387 2.55815 23.5263 3.76251C23.0888 4.23063 22.6273 4.66813 22.181 5.12313C21.3323 5.97042 20.4842 6.8148 19.637 7.65626C18.7922 6.84849 17.7705 6.24924 16.6532 5.90626C15.2234 5.47453 13.7023 5.44497 12.2568 5.82082C10.8113 6.19666 9.49726 6.96339 8.45883 8.03688C7.5524 8.95899 6.86595 10.0739 6.4507 11.2984L1.91602 7.78751C3.53916 4.56873 6.34953 2.10662 9.75383 0.920944Z" fill="#E33629"/>
<path d="M0.71265 11.2657C0.956384 10.0578 1.36103 8.88797 1.91578 7.7876L6.45046 11.3073C5.85724 13.0542 5.85724 14.9481 6.45046 16.6951C4.93963 17.8618 3.42807 19.0343 1.91578 20.2126C0.527042 17.4483 0.103503 14.2987 0.71265 11.2657Z" fill="#F8BD00"/>
<path d="M14.2783 11.4077H27.2983C27.7437 13.851 27.6232 16.3639 26.9461 18.7533C26.3232 20.9506 25.1132 22.9366 23.4461 24.4977C21.9827 23.3558 20.5127 22.2227 19.0493 21.0808C19.7748 20.5915 20.3941 19.9606 20.8699 19.2261C21.3458 18.4917 21.6685 17.6687 21.8186 16.8065H14.2783C14.2761 15.0083 14.2783 13.208 14.2783 11.4077Z" fill="#587DBD"/>
<path d="M1.91406 20.2125C3.42635 19.0458 4.93792 17.8733 6.44875 16.695C7.03327 18.4104 8.14495 19.8973 9.625 20.9431C10.5481 21.5956 11.5971 22.0485 12.705 22.2731C13.7967 22.4761 14.9164 22.4761 16.0081 22.2731C17.0966 22.0889 18.1346 21.6791 19.0553 21.07C20.5187 22.2119 21.9888 23.345 23.4522 24.4869C21.8507 25.9432 19.8984 26.9585 17.7866 27.4334C15.4556 27.9814 13.0264 27.9552 10.7078 27.3569C8.87404 26.8673 7.16116 26.0041 5.67656 24.8216C4.1052 23.574 2.82178 22.0018 1.91406 20.2125Z" fill="#319F43"/>
</g>
<defs>
<clipPath id="clip0_527_7196">
<rect width="28" height="28" fill="white"/>
</clipPath>
</defs>
</svg>
